HIERARCHY
ROOT mixamorig:Hips
{
	OFFSET 0.000000 201.639420 0.000000
	CHANNELS 6 Xposition Yposition Zposition Xrotation Yrotation Zrotation
	JOINT mixamorig:Spine
	{
		OFFSET 0.006200 19.524994 -2.481800
		CHANNELS 3 Xrotation Yrotation Zrotation
		JOINT mixamorig:Spine1
		{
			OFFSET -0.000900 22.835007 -2.825400
			CHANNELS 3 Xrotation Yrotation Zrotation
			JOINT mixamorig:Spine2
			{
				OFFSET -0.020600 26.552490 -3.193300
				CHANNELS 3 Xrotation Yrotation Zrotation
				JOINT mixamorig:Neck
				{
					OFFSET -0.060000 30.701813 1.352200
					CHANNELS 3 Xrotation Yrotation Zrotation
					JOINT mixamorig:Head
					{
						OFFSET -0.087200 22.547607 3.670900
						CHANNELS 3 Xrotation Yrotation Zrotation
						JOINT mixamorig:HeadTop_End
						{
							OFFSET -0.830600 40.355194 7.893500
							CHANNELS 3 Xrotation Yrotation Zrotation
							End Site
							{
								OFFSET 0.000000 30.592346 0.000000
							}
						}
						JOINT mixamorig:RightEye
						{
							OFFSET -6.302100 18.118591 16.197100
							CHANNELS 3 Xrotation Yrotation Zrotation
							End Site
							{
								OFFSET 0.000000 30.592346 0.000000
							}
						}
						JOINT mixamorig:LeftEye
						{
							OFFSET 6.741500 18.382690 16.401899
							CHANNELS 3 Xrotation Yrotation Zrotation
							End Site
							{
								OFFSET 0.000000 30.592346 0.000000
							}
						}
					}
				}
				JOINT mixamorig:LeftShoulder
				{
					OFFSET 11.924900 18.230499 1.425400
					CHANNELS 3 Xrotation Yrotation Zrotation
					JOINT mixamorig:LeftArm
					{
						OFFSET 25.435989 -0.697632 -5.229300
						CHANNELS 3 Xrotation Yrotation Zrotation
						JOINT mixamorig:LeftForeArm
						{
							OFFSET 54.684776 0.000000 0.000000
							CHANNELS 3 Xrotation Yrotation Zrotation
							JOINT mixamorig:LeftHand
							{
								OFFSET 55.098175 0.000000 0.000000
								CHANNELS 3 Xrotation Yrotation Zrotation
								JOINT mixamorig:LeftHandMiddle1
								{
									OFFSET 23.369751 0.000000 0.000000
									CHANNELS 3 Xrotation Yrotation Zrotation
									JOINT mixamorig:LeftHandMiddle2
									{
										OFFSET 6.378677 0.000000 0.000000
										CHANNELS 3 Xrotation Yrotation Zrotation
										JOINT mixamorig:LeftHandMiddle3
										{
											OFFSET 6.148331 0.000000 0.000000
											CHANNELS 3 Xrotation Yrotation Zrotation
											JOINT mixamorig:LeftHandMiddle4
											{
												OFFSET 6.582504 0.000000 0.000000
												CHANNELS 3 Xrotation Yrotation Zrotation
												End Site
												{
													OFFSET -1.168900 6.395691 1.028606
												}
											}
										}
									}
								}
								JOINT mixamorig:LeftHandThumb1
								{
									OFFSET 7.235672 -3.848206 5.434273
									CHANNELS 3 Xrotation Yrotation Zrotation
									JOINT mixamorig:LeftHandThumb2
									{
										OFFSET 6.568451 -3.792297 3.792300
										CHANNELS 3 Xrotation Yrotation Zrotation
										JOINT mixamorig:LeftHandThumb3
										{
											OFFSET 6.063080 -3.500519 3.500518
											CHANNELS 3 Xrotation Yrotation Zrotation
											JOINT mixamorig:LeftHandThumb4
											{
												OFFSET 4.793182 -2.767334 2.767349
												CHANNELS 3 Xrotation Yrotation Zrotation
												End Site
												{
													OFFSET 0.101639 6.054260 1.275483
												}
											}
										}
									}
								}
								JOINT mixamorig:LeftHandIndex1
								{
									OFFSET 23.101074 -0.309540 4.992809
									CHANNELS 3 Xrotation Yrotation Zrotation
									JOINT mixamorig:LeftHandIndex2
									{
										OFFSET 6.226883 0.000000 0.000000
										CHANNELS 3 Xrotation Yrotation Zrotation
										JOINT mixamorig:LeftHandIndex3
										{
											OFFSET 6.094330 0.000000 0.000000
											CHANNELS 3 Xrotation Yrotation Zrotation
											JOINT mixamorig:LeftHandIndex4
											{
												OFFSET 5.482605 0.000000 0.000000
												CHANNELS 3 Xrotation Yrotation Zrotation
												End Site
												{
													OFFSET -1.427902 5.233032 0.797164
												}
											}
										}
									}
								}
								JOINT mixamorig:LeftHandRing1
								{
									OFFSET 22.299240 0.021149 -3.964172
									CHANNELS 3 Xrotation Yrotation Zrotation
									JOINT mixamorig:LeftHandRing2
									{
										OFFSET 6.321869 0.000000 0.000000
										CHANNELS 3 Xrotation Yrotation Zrotation
										JOINT mixamorig:LeftHandRing3
										{
											OFFSET 5.899796 0.000000 0.000000
											CHANNELS 3 Xrotation Yrotation Zrotation
											JOINT mixamorig:LeftHandRing4
											{
												OFFSET 6.517899 0.000000 0.000000
												CHANNELS 3 Xrotation Yrotation Zrotation
												End Site
												{
													OFFSET -1.637299 6.232208 0.980890
												}
											}
										}
									}
								}
								JOINT mixamorig:LeftHandPinky1
								{
									OFFSET 20.463791 -0.302338 -8.562233
									CHANNELS 3 Xrotation Yrotation Zrotation
									JOINT mixamorig:LeftHandPinky2
									{
										OFFSET 6.908646 0.000000 0.000000
										CHANNELS 3 Xrotation Yrotation Zrotation
										JOINT mixamorig:LeftHandPinky3
										{
											OFFSET 4.622849 0.000000 0.000000
											CHANNELS 3 Xrotation Yrotation Zrotation
											JOINT mixamorig:LeftHandPinky4
											{
												OFFSET 5.216080 0.000000 0.000000
												CHANNELS 3 Xrotation Yrotation Zrotation
												End Site
												{
													OFFSET -0.606308 5.116241 0.814926
												}
											}
										}
									}
								}
							}
						}
					}
				}
				JOINT mixamorig:RightShoulder
				{
					OFFSET -12.001300 18.284088 1.348900
					CHANNELS 3 Xrotation Yrotation Zrotation
					JOINT mixamorig:RightArm
					{
						OFFSET -25.308500 -0.751312 -5.164599
						CHANNELS 3 Xrotation Yrotation Zrotation
						JOINT mixamorig:RightForeArm
						{
							OFFSET -54.684429 0.000000 0.000000
							CHANNELS 3 Xrotation Yrotation Zrotation
							JOINT mixamorig:RightHand
							{
								OFFSET -55.150291 0.000000 0.000000
								CHANNELS 3 Xrotation Yrotation Zrotation
								JOINT mixamorig:RightHandMiddle1
								{
									OFFSET -23.317566 0.000000 0.000000
									CHANNELS 3 Xrotation Yrotation Zrotation
									JOINT mixamorig:RightHandMiddle2
									{
										OFFSET -6.378403 0.000000 0.000000
										CHANNELS 3 Xrotation Yrotation Zrotation
										JOINT mixamorig:RightHandMiddle3
										{
											OFFSET -6.148193 0.000000 0.000000
											CHANNELS 3 Xrotation Yrotation Zrotation
											JOINT mixamorig:RightHandMiddle4
											{
												OFFSET -6.583389 0.000000 0.000000
												CHANNELS 3 Xrotation Yrotation Zrotation
												End Site
												{
													OFFSET 1.171692 6.395905 1.029786
												}
											}
										}
									}
								}
								JOINT mixamorig:RightHandThumb1
								{
									OFFSET -7.190521 -3.860474 5.435846
									CHANNELS 3 Xrotation Yrotation Zrotation
									JOINT mixamorig:RightHandThumb2
									{
										OFFSET -6.567429 -3.791718 3.791708
										CHANNELS 3 Xrotation Yrotation Zrotation
										JOINT mixamorig:RightHandThumb3
										{
											OFFSET -6.062469 -3.500153 3.500166
											CHANNELS 3 Xrotation Yrotation Zrotation
											JOINT mixamorig:RightHandThumb4
											{
												OFFSET -4.792618 -2.767029 2.767022
												CHANNELS 3 Xrotation Yrotation Zrotation
												End Site
												{
													OFFSET -0.100327 6.053253 1.276754
												}
											}
										}
									}
								}
								JOINT mixamorig:RightHandIndex1
								{
									OFFSET -23.048981 -0.310791 4.992554
									CHANNELS 3 Xrotation Yrotation Zrotation
									JOINT mixamorig:RightHandIndex2
									{
										OFFSET -6.227539 0.000000 0.000000
										CHANNELS 3 Xrotation Yrotation Zrotation
										JOINT mixamorig:RightHandIndex3
										{
											OFFSET -6.095047 0.000000 0.000000
											CHANNELS 3 Xrotation Yrotation Zrotation
											JOINT mixamorig:RightHandIndex4
											{
												OFFSET -5.484772 0.000000 0.000000
												CHANNELS 3 Xrotation Yrotation Zrotation
												End Site
												{
													OFFSET 1.420593 5.237305 0.797056
												}
											}
										}
									}
								}
								JOINT mixamorig:RightHandRing1
								{
									OFFSET -22.246323 0.020569 -3.963762
									CHANNELS 3 Xrotation Yrotation Zrotation
									JOINT mixamorig:RightHandRing2
									{
										OFFSET -6.322128 0.000000 0.000000
										CHANNELS 3 Xrotation Yrotation Zrotation
										JOINT mixamorig:RightHandRing3
										{
											OFFSET -5.900024 0.000000 0.000000
											CHANNELS 3 Xrotation Yrotation Zrotation
											JOINT mixamorig:RightHandRing4
											{
												OFFSET -6.518356 0.000000 0.000000
												CHANNELS 3 Xrotation Yrotation Zrotation
												End Site
												{
													OFFSET 1.636398 6.232697 0.982186
												}
											}
										}
									}
								}
								JOINT mixamorig:RightHandPinky1
								{
									OFFSET -20.411011 -0.303314 -8.561701
									CHANNELS 3 Xrotation Yrotation Zrotation
									JOINT mixamorig:RightHandPinky2
									{
										OFFSET -6.907349 0.000000 0.000000
										CHANNELS 3 Xrotation Yrotation Zrotation
										JOINT mixamorig:RightHandPinky3
										{
											OFFSET -4.623840 0.000000 0.000000
											CHANNELS 3 Xrotation Yrotation Zrotation
											JOINT mixamorig:RightHandPinky4
											{
												OFFSET -5.218353 0.000000 0.000000
												CHANNELS 3 Xrotation Yrotation Zrotation
												End Site
												{
													OFFSET 0.602097 5.118835 0.816273
												}
											}
										}
									}
								}
							}
						}
					}
				}
			}
		}
	}
	JOINT mixamorig:LeftUpLeg
	{
		OFFSET 18.168400 -13.561905 -0.039000
		CHANNELS 3 Xrotation Yrotation Zrotation
		JOINT mixamorig:LeftLeg
		{
			OFFSET 0.577358 -80.825211 -3.695000
			CHANNELS 3 Xrotation Yrotation Zrotation
			JOINT mixamorig:LeftFoot
			{
				OFFSET -0.577356 -83.370262 -6.520700
				CHANNELS 3 Xrotation Yrotation Zrotation
				JOINT mixamorig:LeftToeBase
				{
					OFFSET 0.750401 -20.798306 25.135401
					CHANNELS 3 Xrotation Yrotation Zrotation
					JOINT mixamorig:LeftToe_End
					{
						OFFSET -0.000500 0.001200 19.917799
						CHANNELS 3 Xrotation Yrotation Zrotation
						End Site
						{
							OFFSET 0.000000 19.917805 0.000000
						}
					}
				}
			}
		}
	}
	JOINT mixamorig:RightUpLeg
	{
		OFFSET -18.162500 -13.585098 -0.041000
		CHANNELS 3 Xrotation Yrotation Zrotation
		JOINT mixamorig:RightLeg
		{
			OFFSET -0.595024 -80.945297 -3.631900
			CHANNELS 3 Xrotation Yrotation Zrotation
			JOINT mixamorig:RightFoot
			{
				OFFSET 0.595024 -83.218193 -6.561200
				CHANNELS 3 Xrotation Yrotation Zrotation
				JOINT mixamorig:RightToeBase
				{
					OFFSET -0.753601 -20.807106 25.115000
					CHANNELS 3 Xrotation Yrotation Zrotation
					JOINT mixamorig:RightToe_End
					{
						OFFSET 0.000299 0.001700 19.918200
						CHANNELS 3 Xrotation Yrotation Zrotation
						End Site
						{
							OFFSET 0.000000 19.918203 0.000000
						}
					}
				}
			}
		}
	}
}
MOTION
Frames: 4
Frame Time: 0.033333
7.805628 192.362793 8.853539 7.693639 -7.805696 -2.554477 8.945279 8.589381 2.520460 1.502888 1.151488 -2.286912 1.540125 1.110714 -2.281999 -0.504098 -0.630300 2.188695 -6.341781 1.047800 -5.335939 0.000000 -0.000000 -0.000000 0.000000 -0.000000 -0.000000 0.000000 -0.000000 -0.000000 -1.488004 8.224794 5.708993 61.413653 -65.315911 -53.829021 0.000006 -28.022794 0.000014 25.577363 -9.069908 -30.891644 -0.032218 -1.107198 -1.113858 -0.000007 0.004542 -0.037737 0.000009 0.000003 -0.000009 -0.000001 0.000000 -0.000003 -1.476218 2.614403 4.981910 3.939031 7.948705 0.746808 -0.579472 1.575000 2.538717 -0.000001 0.000000 -0.000003 -0.154986 -6.228193 -1.756973 -0.000008 0.003623 -0.030016 -0.000004 -0.000005 0.000005 -0.000002 0.000003 -0.000002 0.036415 3.014891 -0.633403 0.000007 0.003636 -0.029982 -0.000001 -0.000004 -0.000001 -0.000002 0.000003 0.000000 0.059539 10.074380 0.237732 -0.018066 -4.051832 -0.531059 -0.000002 0.000001 -0.000005 -0.000001 -0.000001 0.000003 5.124001 8.459072 -0.599036 -2.897970 63.500282 55.314048 -0.000089 111.393180 0.000096 23.888732 -13.162878 -1.059030 0.036622 -0.714211 5.871119 0.316736 -2.078609 17.326648 0.082331 -1.068969 8.807258 -0.000002 0.000000 -0.000001 -1.849240 -3.581796 -6.586142 4.637201 -8.634120 -0.225400 -1.273755 0.137310 -2.094871 0.000002 0.000000 0.000001 -0.304856 2.496639 6.270045 0.316738 -2.078599 17.326646 0.082327 -1.068971 8.807257 -0.000000 -0.000001 -0.000001 0.155317 -1.882367 5.730709 0.316745 -2.078606 17.326645 0.082313 -1.068974 8.807269 0.000000 0.000003 -0.000001 0.630046 -6.850068 5.158366 0.316763 -2.078603 17.326636 0.082321 -1.068974 8.807262 -0.000002 -0.000001 0.000001 -59.853877 -6.336307 2.754425 109.415095 9.719130 0.239536 16.081129 0.578807 -10.183900 -0.070155 0.000003 0.000001 0.000001 0.000000 0.000000 -32.397271 -12.145698 2.289747 48.638283 5.113488 10.844938 1.334913 -0.489888 4.351535 -16.055427 3.956533 -16.971193 -0.000001 0.000000 -0.000000 
2.551501 195.176666 11.389735 5.490948 -6.825440 -3.697907 10.225038 9.689207 1.928116 1.156702 1.322596 -1.884898 1.192852 1.284637 -1.888988 -0.690271 -0.821699 1.597272 -4.460133 -0.770004 -4.993105 0.000001 -0.000000 0.000001 0.000001 -0.000000 0.000001 0.000001 -0.000000 0.000001 -1.459519 7.823381 6.436900 63.068594 -58.380530 -51.384818 0.000000 -28.972030 -0.000007 24.590392 -5.804325 -33.161586 0.000003 -0.001930 0.015983 0.000021 0.013905 -0.115125 0.000007 0.000004 -0.000004 0.000001 -0.000000 -0.000003 -1.540037 3.690194 6.142359 3.939031 7.948704 0.746816 -0.579472 1.575002 2.538717 0.000001 0.000001 0.000002 -0.036458 -5.871496 -0.711076 0.000003 0.011959 -0.099151 -0.000007 -0.000000 0.000007 -0.000000 -0.000002 0.000000 -0.013083 3.522971 0.425694 0.000010 0.011956 -0.099153 -0.000001 -0.000005 -0.000004 0.000000 -0.000001 0.000003 -0.125575 10.805755 1.340901 -0.017965 -4.042269 -0.610206 -0.000001 0.000001 -0.000001 0.000000 0.000001 0.000000 5.551865 9.875894 -2.117264 -6.770106 61.062158 54.337194 -0.000025 116.265898 0.000022 22.952856 -11.643832 -0.240138 0.036627 -0.714210 5.871124 0.316760 -2.078604 17.326639 0.082304 -1.068972 8.807266 -0.000003 -0.000001 0.000001 -1.849237 -3.581796 -6.586138 4.637196 -8.634118 -0.225397 -1.273756 0.137310 -2.094872 -0.000002 -0.000001 -0.000002 -0.304850 2.496641 6.270045 0.316729 -2.078595 17.326643 0.082329 -1.068971 8.807259 -0.000003 0.000001 -0.000001 0.155323 -1.882366 5.730711 0.316746 -2.078603 17.326648 0.082327 -1.068971 8.807261 -0.000001 -0.000001 -0.000001 0.630048 -6.850066 5.158365 0.316735 -2.078604 17.326636 0.082317 -1.068972 8.807262 -0.000003 0.000001 -0.000001 -53.181342 -10.086934 5.753352 104.041956 10.167550 0.300314 16.738673 1.068749 -6.983471 -0.067195 -0.000004 -0.000001 0.000000 -0.000001 -0.000001 -31.804096 -11.352276 -2.438581 47.732876 7.238476 10.625584 7.512866 1.512701 15.960246 -18.706479 5.977851 -20.214285 0.000001 0.000000 -0.000001 
-3.023973 197.135254 13.802572 3.194307 -4.934950 -4.228714 11.937520 10.705020 0.967254 0.149992 1.479570 -1.488979 0.182261 1.446793 -1.517837 0.766802 -0.958339 0.334065 -2.787495 -3.311192 -4.042814 -0.000001 0.000001 0.000000 -0.000001 0.000001 0.000000 -0.000001 0.000001 0.000000 -1.448079 7.445506 7.140325 65.445268 -50.708711 -46.690299 0.000010 -27.360722 -0.000006 25.238502 -1.951758 -34.601062 0.000001 -0.001923 0.015989 0.000003 0.004921 -0.040792 0.000008 0.000005 -0.000013 -0.000001 0.000001 0.000001 -1.540045 3.690191 6.142353 3.939030 7.948704 0.746811 -0.579472 1.575002 2.538717 0.000001 0.000000 -0.000002 -0.036463 -5.871501 -0.711085 0.000008 0.002986 -0.024816 -0.000007 -0.000001 0.000003 -0.000002 0.000002 0.000002 -0.013085 3.522969 0.425701 -0.000001 0.002990 -0.024801 -0.000002 -0.000003 -0.000006 -0.000001 0.000001 0.000003 -0.125582 10.805760 1.340908 -0.018064 -4.051262 -0.535862 -0.000001 0.000000 0.000004 0.000001 0.000001 -0.000000 5.962736 11.195303 -3.562101 -10.733191 55.297891 52.957715 -0.000008 115.849857 0.000017 19.543939 -9.208678 0.216701 0.036624 -0.714208 5.871126 0.316732 -2.078609 17.326646 0.082309 -1.068971 8.807261 0.000005 0.000000 -0.000001 -1.849242 -3.581796 -6.586135 4.637193 -8.634120 -0.225399 -1.273751 0.137309 -2.094875 0.000000 0.000000 0.000000 -0.304853 2.496642 6.270048 0.316755 -2.078596 17.326645 0.082324 -1.068969 8.807257 -0.000003 -0.000001 0.000000 0.155320 -1.882365 5.730715 0.316751 -2.078609 17.326648 0.082309 -1.068968 8.807263 0.000001 -0.000000 0.000001 0.630040 -6.850067 5.158368 0.316744 -2.078607 17.326648 0.082319 -1.068973 8.807262 -0.000003 -0.000001 0.000001 -42.679544 -13.153533 12.461150 90.668227 10.547819 0.247277 16.876942 -0.312367 -0.064529 -0.064184 -0.000003 -0.000008 0.000003 0.000002 0.000000 -29.291990 -10.129650 -6.427476 43.764458 3.451449 9.193518 6.416866 -0.206713 11.234917 -16.165859 3.802558 -14.574934 -0.000000 0.000002 0.000000 
-9.316978 198.568634 16.556990 2.682313 -1.598635 -5.440905 10.721584 10.820299 1.951302 -0.189152 1.475532 -1.264028 -0.157434 1.451366 -1.296330 1.979149 -1.056565 -1.195946 -0.661033 -5.824539 -3.670588 0.000001 -0.000000 -0.000000 0.000001 -0.000000 -0.000000 0.000001 -0.000000 -0.000000 -1.385642 6.916517 7.918077 62.944483 -42.543141 -44.731657 -0.000017 -21.210919 -0.000001 26.573800 1.033997 -34.775724 0.000001 -0.001919 0.015980 0.000001 -0.000068 0.000063 0.000008 0.000005 -0.000013 0.000001 0.000000 -0.000000 -1.540049 3.690180 6.142353 3.939029 7.948706 0.746812 -0.579471 1.575001 2.538717 0.000001 -0.000001 0.000002 -0.036472 -5.871513 -0.711073 0.000006 -0.000006 -0.000026 -0.000008 -0.000000 0.000005 -0.000000 -0.000001 0.000002 -0.013093 3.522967 0.425691 -0.000004 -0.000002 -0.000060 -0.000000 -0.000002 -0.000008 -0.000002 -0.000001 -0.000002 -0.125587 10.805772 1.340910 -0.018103 -4.056691 -0.491032 -0.000003 0.000001 -0.000000 0.000000 0.000000 0.000001 6.158313 12.003751 -5.146751 -12.680227 50.941832 49.849056 -0.000088 109.771331 0.000075 15.734669 -5.367483 1.082063 0.036623 -0.714209 5.871125 0.316750 -2.078606 17.326639 0.082320 -1.068975 8.807280 -0.000004 0.000001 -0.000003 -1.849239 -3.581795 -6.586138 4.637195 -8.634118 -0.225398 -1.273752 0.137308 -2.094874 -0.000002 0.000001 0.000001 -0.304854 2.496641 6.270050 0.316726 -2.078600 17.326651 0.082331 -1.068971 8.807258 0.000004 -0.000001 -0.000001 0.155322 -1.882366 5.730714 0.316753 -2.078606 17.326645 0.082323 -1.068972 8.807270 0.000000 0.000000 0.000000 0.630043 -6.850068 5.158368 0.316729 -2.078607 17.326653 0.082323 -1.068973 8.807260 0.000001 0.000000 0.000000 -32.733429 -12.928650 22.889077 70.872208 10.032939 0.185925 13.192564 -4.410010 1.244779 -0.061071 -0.000000 -0.000000 0.000005 -0.000002 -0.000001 -24.501499 -9.711786 -7.282814 33.033742 -5.827192 6.221473 7.054375 -0.268034 1.383371 -14.513916 -0.533385 2.212736 -0.000000 0.000000 0.000000 
